<svg preserveAspectRatio="none" width="100%" height="100%" overflow="visible" style="display: block;" viewBox="0 0 40 40" fill="none" xmlns="http://www.w3.org/2000/svg">
<g id="Chevron right">
<path id="Vector" d="M24.18 19.16L17.52 12.48C17.2923 12.2589 16.9874 12.1352 16.67 12.1352C16.3526 12.1352 16.0477 12.2589 15.82 12.48C15.7057 12.5901 15.6147 12.7221 15.5526 12.8682C15.4905 13.0142 15.4585 13.1713 15.4585 13.33C15.4585 13.4887 15.4905 13.6458 15.5526 13.7918C15.6147 13.9379 15.7057 14.0699 15.82 14.18L21.64 20L15.82 25.82C15.7057 25.9301 15.6147 26.0621 15.5526 26.2082C15.4905 26.3542 15.4585 26.5113 15.4585 26.67C15.4585 26.8287 15.4905 26.9858 15.5526 27.1318C15.6147 27.2779 15.7057 27.4099 15.82 27.52C16.05 27.7366 16.3541 27.8572 16.67 27.8572C16.9859 27.8572 17.29 27.7366 17.52 27.52L24.18 20.84C24.3999 20.6157 24.523 20.3141 24.523 20C24.523 19.6859 24.3999 19.3843 24.18 19.16Z" fill="var(--fill-0, #3483FA)"/>
</g>
</svg>
