<svg preserveAspectRatio="none" width="100%" height="100%" overflow="visible" style="display: block;" viewBox="0 0 10 16" fill="none" xmlns="http://www.w3.org/2000/svg">
<path id="Vector" d="M8.72153 7.02484L2.06153 0.344842C1.83384 0.1237 1.52893 0 1.21153 0C0.894122 0 0.589213 0.1237 0.361526 0.344842C0.247199 0.454928 0.156255 0.586947 0.0941362 0.732998C0.0320173 0.879049 0 1.03613 0 1.19484C0 1.35355 0.0320173 1.51064 0.0941362 1.65669C0.156255 1.80274 0.247199 1.93476 0.361526 2.04484L6.18153 7.86484L0.361526 13.6848C0.247199 13.7949 0.156255 13.9269 0.0941362 14.073C0.0320173 14.219 0 14.3761 0 14.5348C0 14.6936 0.0320173 14.8506 0.0941362 14.9967C0.156255 15.1427 0.247199 15.2748 0.361526 15.3848C0.591558 15.6014 0.895585 15.722 1.21153 15.722C1.52747 15.722 1.83149 15.6014 2.06153 15.3848L8.72153 8.70484C8.9414 8.48053 9.06456 8.17895 9.06456 7.86484C9.06456 7.55074 8.9414 7.24916 8.72153 7.02484Z" fill="var(--fill-0, #3483FA)"/>
</svg>
