<svg width="40" height="40" viewBox="0 0 40 40" fill="none" xmlns="http://www.w3.org/2000/svg">
<path d="M24.1825 19.16L17.5225 12.48C17.2948 12.2588 16.9899 12.1351 16.6725 12.1351C16.3551 12.1351 16.0502 12.2588 15.8225 12.48C15.7081 12.5901 15.6172 12.7221 15.5551 12.8681C15.493 13.0142 15.4609 13.1713 15.4609 13.33C15.4609 13.4887 15.493 13.6458 15.5551 13.7918C15.6172 13.9379 15.7081 14.0699 15.8225 14.18L21.6425 20L15.8225 25.82C15.7081 25.9301 15.6172 26.0621 15.5551 26.2081C15.493 26.3542 15.4609 26.5113 15.4609 26.67C15.4609 26.8287 15.493 26.9858 15.5551 27.1318C15.6172 27.2779 15.7081 27.4099 15.8225 27.52C16.0525 27.7365 16.3565 27.8571 16.6725 27.8571C16.9884 27.8571 17.2924 27.7365 17.5225 27.52L24.1825 20.84C24.4023 20.6157 24.5255 20.3141 24.5255 20C24.5255 19.6859 24.4023 19.3843 24.1825 19.16Z" fill="#3483FA"/>
</svg>
