<svg preserveAspectRatio="none" width="100%" height="100%" overflow="visible" style="display: block;" viewBox="0 0 46 32" fill="none" xmlns="http://www.w3.org/2000/svg">
<g id="logo">
<path id="Vector" d="M22.9245 0.595703C10.5035 0.595703 0.434977 7.03663 0.434977 14.9825C0.434977 22.9279 10.5035 29.9932 22.9245 29.9932C35.345 29.9932 45.4135 22.9279 45.4135 14.9825C45.4135 7.03663 35.345 0.595703 22.9245 0.595703Z" fill="var(--fill-0, #00BCFF)"/>
<path id="Vector_2" d="M15.6069 10.5355C15.5957 10.5575 15.3759 10.7845 15.5187 10.9677C15.866 11.4122 16.9405 11.6668 18.0268 11.4229C18.6737 11.2779 19.5026 10.6182 20.3057 9.98087C21.1762 9.28962 22.0394 8.59782 22.9066 8.32245C23.826 8.02965 24.4149 8.15554 24.8038 8.27299C25.2309 8.40056 25.7322 8.68099 26.5331 9.28232C28.0409 10.4158 34.1036 15.7075 35.1511 16.6224C35.9947 16.2414 40.0134 14.6178 45.109 13.4944C44.6661 10.7783 43.0324 8.18869 40.526 6.15374C37.0321 7.62109 32.4783 8.49947 28.3039 6.46115C28.2825 6.45272 26.0239 5.38326 23.7951 5.43609C20.4833 5.51308 19.0485 6.94614 17.53 8.4635L15.6069 10.5355Z" fill="var(--fill-0, white)"/>
<path id="Vector_3" d="M34.905 17.1979C34.8336 17.1338 27.7762 10.9587 26.1773 9.7572C25.2517 9.06315 24.7375 8.88612 24.1969 8.817C23.9159 8.78103 23.527 8.83273 23.255 8.90748C22.5115 9.10979 21.5387 9.76001 20.6755 10.4445C19.7819 11.1565 18.9389 11.827 18.1561 12.0023C17.1563 12.2266 15.9362 11.9619 15.3793 11.5853C15.1534 11.4342 14.9949 11.2583 14.9185 11.0807C14.7128 10.6035 15.0921 10.2225 15.1545 10.1585L17.1024 8.05157C17.3288 7.82565 17.5564 7.59973 17.7908 7.37719C17.1619 7.45924 16.5808 7.6194 16.0155 7.77676C15.3096 7.97458 14.6307 8.16341 13.9446 8.16284C13.6579 8.16284 12.122 7.91164 11.8304 7.8324C10.0674 7.35021 8.07068 6.88039 5.75979 5.80138C2.99088 7.86274 1.18803 10.3934 0.653022 13.232C1.05091 13.3371 2.09339 13.5748 2.36258 13.6343C8.62873 15.0275 10.5799 16.4628 10.934 16.7624C11.3173 16.3352 11.8703 16.0661 12.4873 16.0661C13.1808 16.0672 13.8052 16.415 14.1856 16.954C14.5442 16.6702 15.0393 16.428 15.6788 16.4285C15.9694 16.4285 16.2701 16.4819 16.5752 16.5853C17.2822 16.8281 17.6475 17.2991 17.8363 17.725C18.0729 17.6177 18.3646 17.5385 18.708 17.5396C19.0457 17.5396 19.3964 17.6166 19.7504 17.7694C20.9059 18.2651 21.0852 19.3998 20.9806 20.2551C21.0632 20.2461 21.1464 20.2416 21.2301 20.2416C22.5997 20.2427 23.7141 21.356 23.7141 22.7267C23.7141 23.1505 23.6057 23.5495 23.4168 23.8996C23.7894 24.1092 24.7392 24.583 25.5743 24.4773C26.2397 24.3936 26.4931 24.166 26.5836 24.0373C26.646 23.949 26.7112 23.8462 26.6505 23.772L24.8825 21.8084C24.8825 21.8084 24.5919 21.5331 24.688 21.4268C24.7875 21.3173 24.9674 21.474 25.0949 21.5808C25.9947 22.3322 27.0928 23.4663 27.0928 23.4663C27.1119 23.4787 27.1844 23.6225 27.5907 23.695C27.9408 23.7574 28.559 23.7214 28.9878 23.3691C29.0957 23.2803 29.2036 23.169 29.2952 23.0544C29.2873 23.0605 29.2817 23.0673 29.2744 23.0706C29.7268 22.4918 29.2238 21.9068 29.2238 21.9068L27.1597 19.5891C27.1597 19.5891 26.8641 19.316 26.9658 19.207C27.0551 19.1115 27.2451 19.2553 27.3743 19.3627C28.0274 19.9089 28.9507 20.8351 29.8358 21.7028C30.0095 21.8292 30.7862 22.3097 31.8168 21.6342C32.4423 21.224 32.5677 20.7199 32.5491 20.3405C32.5058 19.8375 32.113 19.479 32.113 19.479L29.2946 16.6438C29.2946 16.6438 28.9962 16.3892 29.1019 16.2611C29.1884 16.1526 29.3806 16.3083 29.5082 16.4145C30.4057 17.1659 32.8368 19.3953 32.8368 19.3953C32.8723 19.42 33.7119 20.0179 34.7498 19.357C35.1213 19.1193 35.3585 18.7619 35.3782 18.3455C35.413 17.6261 34.905 17.1979 34.905 17.1979Z" fill="var(--fill-0, white)"/>
<path id="Vector_4" d="M21.229 20.7907C20.7918 20.7856 20.3136 21.0458 20.2512 21.007C20.2163 20.9846 20.2781 20.8086 20.3186 20.7075C20.3613 20.6075 20.9368 18.8743 19.533 18.2735C18.459 17.8121 17.802 18.3314 17.5761 18.5652C17.5177 18.6265 17.4907 18.6214 17.484 18.5438C17.462 18.2319 17.3227 17.3878 16.3959 17.1046C15.0708 16.6994 14.2188 17.6239 14.003 17.9577C13.9063 17.2024 13.2679 16.6162 12.4862 16.6157C11.6365 16.6145 10.9475 17.303 10.9469 18.1521C10.9464 19.0013 11.6354 19.6909 12.4845 19.6909C12.8976 19.692 13.2719 19.5273 13.5478 19.2615C13.5568 19.2694 13.5602 19.284 13.5557 19.3132C13.491 19.6942 13.3719 21.075 14.819 21.6381C15.3995 21.8641 15.893 21.696 16.3021 21.4094C16.424 21.3234 16.4437 21.36 16.4263 21.4746C16.374 21.8298 16.4403 22.5907 17.5076 23.0229C18.3191 23.3528 18.7996 23.0156 19.1143 22.7245C19.2514 22.6003 19.2891 22.6205 19.2964 22.8133C19.3351 23.8417 20.1894 24.6588 21.2268 24.6594C22.2968 24.6605 23.1628 23.7962 23.1634 22.7273C23.1639 21.6584 22.2979 20.803 21.229 20.7907Z" fill="var(--fill-0, white)"/>
<path id="Vector_5" d="M22.9206 0C10.263 0 0.00280993 6.73203 0.00280993 14.9899C0.00280993 15.2034 0 15.7924 0 15.8677C0 24.629 8.96817 31.7241 22.9178 31.7241C36.9517 31.7241 45.8378 24.6307 45.8378 15.8694C45.8378 15.5636 45.8378 15.3872 45.8378 14.9904C45.8378 6.73203 35.5771 0 22.9206 0ZM44.8049 13.3286C39.824 14.4363 36.1093 16.0436 35.1775 16.4583C33.0032 14.5611 27.9796 10.1922 26.619 9.17161C25.8412 8.58659 25.3107 8.27805 24.8448 8.13924C24.6363 8.0763 24.3464 8.00437 23.9743 8.00324C23.6281 8.00324 23.2561 8.06619 22.8683 8.18982C21.9888 8.46857 21.1121 9.16431 20.2652 9.83813L20.2214 9.87241C19.4318 10.5001 18.6158 11.1492 17.9982 11.2869C17.7279 11.3476 17.4514 11.3791 17.1749 11.3791C16.4831 11.378 15.8615 11.1785 15.6288 10.8817C15.5906 10.8323 15.6159 10.753 15.7053 10.639L15.7171 10.6232L17.6301 8.56242C19.1283 7.06473 20.5434 5.64965 23.8001 5.5749C23.8541 5.57322 23.9091 5.57209 23.9625 5.57209C25.9896 5.57378 28.0167 6.48082 28.2443 6.58648C30.1449 7.51319 32.1074 7.9847 34.0794 7.98582C36.1301 7.98638 38.2471 7.47947 40.472 6.45666C42.7952 8.41125 44.3362 10.7648 44.8049 13.3286ZM22.9245 0.885128C29.6431 0.885128 35.6547 2.81105 39.6965 5.84353C37.7424 6.68876 35.8811 7.11587 34.0839 7.11587C32.2456 7.11418 30.4085 6.67246 28.6242 5.80194C28.5303 5.75699 26.2931 4.70214 23.9642 4.70101C23.903 4.70101 23.8411 4.70214 23.7804 4.70326C21.0447 4.76733 19.5037 5.73844 18.4669 6.58985C17.4592 6.61458 16.5898 6.85792 15.8154 7.07372C15.1253 7.26536 14.529 7.4317 13.9474 7.4317C13.708 7.4317 13.2769 7.40979 13.2381 7.4081C12.5711 7.38787 9.21938 6.56568 6.5432 5.55523C10.5771 2.68854 16.4207 0.885128 22.9245 0.885128ZM5.75024 6.15319C8.54556 7.29627 11.9366 8.17915 13.0094 8.24883C13.3084 8.2685 13.627 8.30222 13.9462 8.30278C14.6577 8.30278 15.3675 8.10328 16.0548 7.91108C16.4606 7.79699 16.9085 7.67336 17.3794 7.58344C17.2535 7.70652 17.1277 7.83184 17.0018 7.95829L15.059 10.0607C14.9061 10.2147 14.574 10.6266 14.7932 11.1341C14.8803 11.3386 15.0567 11.5348 15.304 11.7011C15.7671 12.013 16.5966 12.2243 17.3665 12.2243C17.6582 12.2249 17.9352 12.1957 18.1892 12.1383C19.0041 11.9557 19.8589 11.2751 20.7637 10.5552C21.4853 9.98256 22.5092 9.25479 23.2943 9.04123C23.5141 8.98166 23.7833 8.94457 23.9996 8.94457C24.0648 8.94513 24.1255 8.94738 24.1823 8.95581C24.6999 9.02156 25.2011 9.19746 26.0964 9.86904C27.6919 11.0678 34.7493 17.2423 34.819 17.303C34.8235 17.3069 35.2736 17.6958 35.2427 18.3404C35.2259 18.7006 35.0263 19.021 34.6785 19.2424C34.3773 19.434 34.0665 19.5307 33.7529 19.5307C33.2808 19.5296 32.9566 19.3093 32.9346 19.2935C32.9088 19.2722 30.4906 17.0546 29.6004 16.3094C29.4588 16.1919 29.3211 16.0863 29.1828 16.0863C29.1081 16.0857 29.0423 16.1178 28.9979 16.1734C28.858 16.3459 29.0148 16.5853 29.1997 16.7416L32.0242 19.5818C32.0282 19.5847 32.376 19.9112 32.4148 20.3467C32.4367 20.8177 32.2125 21.211 31.7443 21.5179C31.4111 21.7376 31.0739 21.8489 30.7429 21.8489C30.3085 21.8489 30.0044 21.6516 29.937 21.6044L29.5318 21.2054C28.7911 20.4765 28.0262 19.7229 27.4665 19.2559C27.3299 19.1424 27.185 19.0373 27.0456 19.0373C26.9765 19.0373 26.9152 19.0626 26.8674 19.1131C26.8034 19.184 26.759 19.3115 26.9191 19.5228C26.9838 19.6099 27.0619 19.6819 27.0619 19.6819L29.1227 21.9973C29.1395 22.0175 29.5475 22.5025 29.1699 22.9852L29.0968 23.0774C29.0345 23.1448 28.9687 23.2078 28.9046 23.2623C28.5534 23.5506 28.0836 23.5815 27.8976 23.5815C27.7975 23.5815 27.702 23.5731 27.6188 23.5579C27.4159 23.5214 27.2782 23.4646 27.2125 23.3865L27.1866 23.3606C27.0748 23.2443 26.0357 22.1833 25.1764 21.4656C25.0629 21.3706 24.9218 21.2515 24.7752 21.2515C24.7032 21.2515 24.6392 21.2796 24.5886 21.3341C24.4189 21.5207 24.6746 21.7989 24.7825 21.9012L26.5398 23.8406C26.5381 23.8574 26.5168 23.8973 26.474 23.9592C26.4111 24.0463 26.1981 24.2598 25.5603 24.3396C25.4838 24.3497 25.404 24.3537 25.327 24.3537C24.6689 24.3537 23.9676 24.0339 23.6057 23.8428C23.7709 23.4944 23.8558 23.1117 23.8558 22.7284C23.8569 21.2813 22.6818 20.1039 21.2341 20.1028C21.2032 20.1028 21.17 20.1039 21.1397 20.1045C21.1869 19.4436 21.0936 18.1926 19.8095 17.6419C19.4402 17.4817 19.071 17.4002 18.713 17.4002C18.4326 17.4002 18.1623 17.4485 17.9088 17.5458C17.643 17.0287 17.2007 16.6522 16.6247 16.4555C16.306 16.3454 15.9891 16.2897 15.6833 16.2897C15.1489 16.2897 14.656 16.4471 14.2171 16.7595C13.7962 16.2358 13.1612 15.9261 12.4918 15.9261C11.9062 15.9261 11.3431 16.1605 10.9256 16.5741C10.3782 16.156 8.20725 14.7769 2.39631 13.4579C2.11869 13.3949 1.4887 13.2145 1.09194 13.0982C1.63482 10.49 3.29212 8.10777 5.75024 6.15319ZM16.5291 21.2796L16.4662 21.2234H16.4027C16.351 21.2234 16.297 21.2448 16.2251 21.2953C15.9289 21.5038 15.6451 21.6044 15.3563 21.6044C15.1972 21.6044 15.0348 21.573 14.8718 21.51C13.5248 20.9857 13.631 19.7145 13.6967 19.3318C13.7063 19.2536 13.6872 19.1935 13.6377 19.1536L13.5427 19.0761L13.4539 19.1609C13.1915 19.4138 12.8481 19.5526 12.4873 19.5526C11.7157 19.5515 11.088 18.9254 11.0885 18.1527C11.0891 17.3817 11.7174 16.7551 12.489 16.7562C13.1859 16.7562 13.7799 17.2805 13.8687 17.9768L13.917 18.3522L14.1233 18.0341C14.1463 17.9965 14.7117 17.1428 15.7513 17.1434C15.9486 17.1434 16.1532 17.1749 16.3589 17.2389C17.1867 17.4918 17.3272 18.2426 17.3485 18.5557C17.3637 18.7377 17.4935 18.7467 17.5182 18.7467C17.5902 18.7467 17.643 18.7012 17.6801 18.6619C17.8363 18.4989 18.1769 18.2275 18.7096 18.2275C18.9535 18.2286 19.2126 18.2865 19.4813 18.4017C20.798 18.9665 20.2012 20.6401 20.1938 20.6569C20.0803 20.934 20.0758 21.0565 20.182 21.1273L20.2338 21.152H20.2725C20.3315 21.152 20.4057 21.1267 20.5277 21.0852C20.7064 21.0233 20.9767 20.93 21.2302 20.93H21.2307C22.2221 20.9413 23.0279 21.7483 23.0279 22.7278C23.0274 23.7175 22.2198 24.5223 21.2302 24.5223C20.2607 24.5211 19.4739 23.7681 19.438 22.8088C19.4352 22.7267 19.4267 22.5081 19.2413 22.5081C19.1654 22.5081 19.0997 22.5536 19.0238 22.6228C18.8108 22.82 18.5394 23.0201 18.1432 23.0201C17.9628 23.0201 17.7689 22.9785 17.5626 22.8948C16.5398 22.4794 16.5258 21.7775 16.5674 21.4948C16.578 21.4184 16.5814 21.3403 16.5291 21.2796ZM22.9245 29.08C10.7536 29.08 0.887938 22.7683 0.887938 14.9825C0.887938 14.669 0.909856 14.3593 0.940765 14.0508C1.03799 14.0738 2.0046 14.3048 2.20467 14.3503C8.14037 15.6687 10.1023 17.04 10.4338 17.2991C10.3214 17.5682 10.263 17.8599 10.2624 18.1522C10.2619 19.379 11.2594 20.3782 12.4862 20.3793C12.6239 20.3793 12.7599 20.3669 12.8942 20.3416C13.0791 21.2448 13.6698 21.9287 14.5723 22.2799C14.8359 22.3811 15.1028 22.4328 15.3647 22.4328C15.5344 22.4339 15.7041 22.4126 15.8711 22.3704C16.0385 22.7936 16.4128 23.3207 17.2519 23.6619C17.5452 23.7799 17.8391 23.8417 18.1252 23.8417C18.3584 23.8417 18.5866 23.8007 18.8041 23.7203C19.2059 24.6987 20.1629 25.3478 21.2285 25.3478C21.9349 25.3484 22.6132 25.0601 23.1083 24.5509C23.5315 24.787 24.4256 25.2129 25.3293 25.2141C25.4456 25.2141 25.5552 25.2062 25.6653 25.1927C26.5617 25.0798 26.9793 24.7279 27.1709 24.4559C27.2057 24.4082 27.2367 24.3576 27.2642 24.3053C27.4755 24.366 27.7087 24.4155 27.9751 24.4166C28.4646 24.4166 28.9344 24.2497 29.4099 23.9035C29.8769 23.5663 30.2096 23.0836 30.2568 22.6716C30.2579 22.6666 30.2579 22.6604 30.2585 22.6548C30.4164 22.6868 30.5777 22.7031 30.739 22.7031C31.2436 22.7031 31.7399 22.5463 32.213 22.2355C33.128 21.6365 33.2859 20.8531 33.2707 20.3411C33.432 20.3742 33.595 20.3911 33.7574 20.3911C34.23 20.3911 34.6953 20.2484 35.1382 19.9662C35.7052 19.6038 36.0469 19.0491 36.0992 18.4034C36.1335 17.965 36.025 17.5216 35.794 17.1411C37.3232 16.4825 40.8176 15.2073 44.9336 14.2789C44.9516 14.5122 44.9617 14.7465 44.9617 14.9825C44.9606 22.7683 35.0949 29.08 22.9245 29.08Z" fill="var(--fill-0, #0A0080)"/>
</g>
</svg>
