<svg width="24" height="24" viewBox="0 0 24 24" fill="none" xmlns="http://www.w3.org/2000/svg">
<path d="M13.5023 15C13.5023 15.8284 12.8308 16.5 12.0023 16.5C11.1739 16.5 10.5023 15.8284 10.5023 15C10.5023 14.1716 11.1739 13.5 12.0023 13.5C12.8308 13.5 13.5023 14.1716 13.5023 15Z" fill="black" fill-opacity="0.9"/>
<path fill-rule="evenodd" clip-rule="evenodd" d="M17.2543 6.002V8.98398H19.4656V18C19.4656 20.8995 17.1151 23.25 14.2156 23.25H9.78906C6.88957 23.25 4.53906 20.8995 4.53906 18V8.98398H6.75033V6.002C6.75033 3.1014 9.10173 0.75 12.0023 0.75C14.9029 0.75 17.2543 3.1014 17.2543 6.002ZM8.25033 8.98398V6.002C8.25033 3.92983 9.93016 2.25 12.0023 2.25C14.0745 2.25 15.7543 3.92983 15.7543 6.002V8.98398H8.25033ZM17.9656 10.484V18C17.9656 20.0711 16.2867 21.75 14.2156 21.75H9.78906C7.71799 21.75 6.03906 20.0711 6.03906 18V10.484H17.9656Z" fill="black" fill-opacity="0.9"/>
</svg>
