<svg preserveAspectRatio="none" width="100%" height="100%" overflow="visible" style="display: block;" viewBox="0 0 24 24" fill="none" xmlns="http://www.w3.org/2000/svg">
<g id="Padlock Closed">
<g id="Icon shape">
<path d="M13.5 15C13.5 15.8284 12.8284 16.5 12 16.5C11.1716 16.5 10.5 15.8284 10.5 15C10.5 14.1716 11.1716 13.5 12 13.5C12.8284 13.5 13.5 14.1716 13.5 15Z" fill="var(--fill-0, black)" fill-opacity="0.9"/>
<path fill-rule="evenodd" clip-rule="evenodd" d="M17.252 6.002V8.98398H19.4633V18C19.4633 20.8995 17.1128 23.25 14.2133 23.25H9.78673C6.88724 23.25 4.53673 20.8995 4.53673 18V8.98398H6.748V6.002C6.748 3.1014 9.0994 0.75 12 0.75C14.9006 0.75 17.252 3.1014 17.252 6.002ZM8.248 8.98398V6.002C8.248 3.92983 9.92783 2.25 12 2.25C14.0722 2.25 15.752 3.92983 15.752 6.002V8.98398H8.248ZM17.9633 10.484V18C17.9633 20.0711 16.2843 21.75 14.2133 21.75H9.78673C7.71567 21.75 6.03673 20.0711 6.03673 18V10.484H17.9633Z" fill="var(--fill-0, black)" fill-opacity="0.9"/>
</g>
</g>
</svg>
