<svg preserveAspectRatio="none" width="100%" height="100%" overflow="visible" style="display: block;" viewBox="0 0 40 40" fill="none" xmlns="http://www.w3.org/2000/svg">
<g id="seta">
<path id="Vector" d="M24.1892 19.1638L17.5292 12.4838C17.3016 12.2627 16.9967 12.139 16.6792 12.139C16.3618 12.139 16.0569 12.2627 15.8292 12.4838C15.7149 12.5939 15.624 12.7259 15.5619 12.872C15.4997 13.018 15.4677 13.1751 15.4677 13.3338C15.4677 13.4925 15.4997 13.6496 15.5619 13.7957C15.624 13.9417 15.7149 14.0737 15.8292 14.1838L21.6492 20.0038L15.8292 25.8238C15.7149 25.9339 15.624 26.0659 15.5619 26.212C15.4997 26.358 15.4677 26.5151 15.4677 26.6738C15.4677 26.8325 15.4997 26.9896 15.5619 27.1357C15.624 27.2817 15.7149 27.4137 15.8292 27.5238C16.0593 27.7404 16.3633 27.861 16.6792 27.861C16.9952 27.861 17.2992 27.7404 17.5292 27.5238L24.1892 20.8438C24.4091 20.6195 24.5323 20.3179 24.5323 20.0038C24.5323 19.6897 24.4091 19.3881 24.1892 19.1638Z" fill="var(--fill-0, #3483FA)"/>
</g>
</svg>
